<svg xmlns="http://www.w3.org/2000/svg" viewBox="0 0 32 32">
  <!-- MindMosaic favicon — simplified brain mark in brand purple -->
  <!-- Full-fidelity favicon.png (32x32, 64x64) to be exported from design tool -->
  <rect width="32" height="32" rx="8" fill="#5925a8"/>
  <!-- Brain outline — two hemisphere lobes -->
  <path d="M16 7 C11 7 7 10.5 7 15 C7 17.5 8 19.5 10 21 C10 22.5 10.5 24 12 24.5 C13 25 14 24.5 14.5 23.5 C15 24 15.5 24.5 16 24.5 C16.5 24.5 17 24 17.5 23.5 C18 24.5 19 25 20 24.5 C21.5 24 22 22.5 22 21 C24 19.5 25 17.5 25 15 C25 10.5 21 7 16 7Z" fill="white" opacity="0.92"/>
  <!-- Centre sulcus -->
  <path d="M16 7.5 L16 24" stroke="#5925a8" stroke-width="1" stroke-linecap="round" opacity="0.4"/>
  <!-- Orange accent dot -->
  <circle cx="20.5" cy="13.5" r="2.5" fill="#ef6843"/>
</svg>
